<?xml version="1.0" encoding="UTF-8" standalone="no"?>
<!-- Created with Inkscape (http://www.inkscape.org/) -->

<svg
   xmlns:dc="http://purl.org/dc/elements/1.1/"
   xmlns:cc="http://creativecommons.org/ns#"
   xmlns:rdf="http://www.w3.org/1999/02/22-rdf-syntax-ns#"
   xmlns:svg="http://www.w3.org/2000/svg"
   xmlns="http://www.w3.org/2000/svg"
   xmlns:sodipodi="http://sodipodi.sourceforge.net/DTD/sodipodi-0.dtd"
   xmlns:inkscape="http://www.inkscape.org/namespaces/inkscape"
   width="95"
   height="95"
   id="svg2"
   version="1.1"
   inkscape:version="0.48.4 r9939"
   sodipodi:docname="button1-template.svg">
  <defs
     id="defs4" />
  <sodipodi:namedview
     id="base"
     pagecolor="#ffffff"
     bordercolor="#666666"
     borderopacity="1.0"
     inkscape:pageopacity="0.0"
     inkscape:pageshadow="2"
     inkscape:zoom="3.959798"
     inkscape:cx="-24.06191"
     inkscape:cy="68.402887"
     inkscape:document-units="px"
     inkscape:current-layer="layer7"
     showgrid="false"
     inkscape:window-width="1920"
     inkscape:window-height="1018"
     inkscape:window-x="-8"
     inkscape:window-y="-8"
     inkscape:window-maximized="1" />
  <metadata
     id="metadata7">
    <rdf:RDF>
      <cc:Work
         rdf:about="">
        <dc:format>image/svg+xml</dc:format>
        <dc:type
           rdf:resource="http://purl.org/dc/dcmitype/StillImage" />
        <dc:title></dc:title>
      </cc:Work>
    </rdf:RDF>
  </metadata>
  <g
     inkscape:label="base"
     inkscape:groupmode="layer"
     id="layer1"
     transform="translate(0,-957.36218)"
     sodipodi:insensitive="true">
    <path
       sodipodi:type="arc"
       style="color:#000000;fill:#222226;fill-opacity:1;stroke:none;stroke-width:3.4124999;marker:none;visibility:visible;display:inline;overflow:visible;enable-background:accumulate"
       id="path2985"
       sodipodi:cx="45.961941"
       sodipodi:cy="47.775368"
       sodipodi:rx="34.092648"
       sodipodi:ry="34.092648"
       d="m 80.054588,47.775368 c 0,18.828849 -15.263798,34.092647 -34.092647,34.092647 -18.82885,0 -34.092648,-15.263798 -34.092648,-34.092647 0,-18.82885 15.263798,-34.092648 34.092648,-34.092648 18.828849,0 34.092647,15.263798 34.092647,34.092648 z"
       transform="matrix(1.3932623,0,0,1.3932623,-16.537039,938.29856)" />
  </g>
  <g
     inkscape:groupmode="layer"
     id="layer7"
     inkscape:label="at">
    <g
       style="font-size:40px;font-style:normal;font-variant:normal;font-weight:normal;font-stretch:normal;line-height:125%;letter-spacing:0px;word-spacing:0px;fill:#ffffff;fill-opacity:1;stroke:none;font-family:Sans;-inkscape-font-specification:Sans"
       id="flowRoot4501"
       transform="matrix(1.8973192,0,0,1.8973192,299.11713,19.001135)">
      <path
         d="m -130.60547,22.208095 c -0.84637,0.976565 -1.79364,1.761069 -2.8418,2.353516 -1.04819,0.592448 -2.09962,0.888672 -3.15429,0.888672 -1.15887,0 -2.28517,-0.338542 -3.37891,-1.015625 -1.09376,-0.677082 -1.98243,-1.718748 -2.66601,-3.125 -0.68361,-1.406245 -1.0254,-2.949212 -1.02539,-4.628906 -10e-6,-2.070302 0.53058,-4.143868 1.59179,-6.220704 1.06119,-2.0768055 2.37955,-3.6360487 3.95508,-4.6777339 1.5755,-1.041646 3.10545,-1.5624789 4.58984,-1.5625 1.1328,2.11e-5 2.21352,0.2962448 3.24219,0.8886718 1.02862,0.5924677 1.91404,1.4941595 2.65625,2.7050782 l 0.66406,-3.0273438 3.4961,0 -2.8125,13.1054687 c -0.39065,1.822922 -0.58597,2.832036 -0.58594,3.027344 -3e-5,0.351566 0.13344,0.654301 0.40039,0.908203 0.2669,0.25391 0.58917,0.380863 0.9668,0.380859 0.69007,4e-6 1.59502,-0.397132 2.71484,-1.191406 1.48434,-1.041661 2.65947,-2.438144 3.52539,-4.189453 0.86585,-1.751292 1.29879,-3.557931 1.29883,-5.419922 -4e-5,-2.1744629 -0.55668,-4.2057109 -1.66992,-6.0937499 -1.11332,-1.8879989 -2.77347,-3.3984141 -4.98047,-4.53125003 -2.20706,-1.13278676 -4.64521,-1.69919244 -7.31445,-1.69921875 -3.0469,2.631e-5 -5.8301,0.71291622 -8.34961,2.13867188 -2.51954,1.425804 -4.47267,3.4700728 -5.85938,6.1328125 -1.38672,2.6627753 -2.08008,5.5175903 -2.08008,8.5644533 0,3.19011 0.69336,5.937503 2.08008,8.242187 1.38671,2.304687 3.39192,4.007159 6.01563,5.107422 2.62368,1.100256 5.53058,1.650385 8.7207,1.650391 3.41143,-6e-6 6.2695,-0.572922 8.57422,-1.71875 2.30465,-1.145836 4.02991,-2.539064 5.17578,-4.179688 l 3.53516,0 c -0.6641,1.367187 -1.80343,2.760415 -3.41797,4.179688 -1.61462,1.419265 -3.53519,2.542311 -5.76172,3.36914 -2.22659,0.826815 -4.90888,1.240226 -8.04688,1.240235 -2.89064,-9e-6 -5.55665,-0.371102 -7.99804,-1.113281 -2.44142,-0.742194 -4.5215,-1.85873 -6.24024,-3.34961 -1.71875,-1.490888 -3.01433,-3.206381 -3.88672,-5.146484 -1.09375,-2.460934 -1.64062,-5.117181 -1.64062,-7.96875 0,-3.177071 0.65104,-6.204412 1.95312,-9.0820314 1.58854,-3.5286241 3.8444,-6.23044431 6.76758,-8.10546878 2.92317,-1.87497182 6.46808,-2.81247082 10.63477,-2.81250002 3.22914,2.92e-5 6.12953,0.6608358 8.70117,1.9824219 2.57158,1.32164043 4.59957,3.2910395 6.08398,5.9082031 1.26299,2.2526232 1.8945,4.7005374 1.89453,7.3437502 -3e-5,3.776052 -1.32816,7.128913 -3.98437,10.058594 -2.36982,2.630209 -4.96097,3.945312 -7.77344,3.945312 -0.89846,0 -1.62437,-0.136719 -2.17773,-0.410156 -0.55341,-0.273437 -0.96031,-0.664062 -1.2207,-1.171875 -0.1693,-0.325519 -0.293,-0.885414 -0.3711,-1.679688 z m -9.45312,-5.292968 c -2e-5,1.78386 0.42316,3.170578 1.26953,4.160156 0.84634,0.989586 1.81639,1.484378 2.91015,1.484375 0.72915,3e-6 1.49738,-0.218096 2.30469,-0.654297 0.80727,-0.436194 1.57876,-1.08398 2.31445,-1.943359 0.73566,-0.859369 1.33787,-1.949863 1.80665,-3.271485 0.46872,-1.321604 0.7031,-2.646473 0.70312,-3.974609 -2e-5,-1.770819 -0.43948,-3.1445156 -1.31836,-4.1210939 -0.87893,-0.9765448 -1.94989,-1.4648255 -3.21289,-1.4648438 -0.83335,1.83e-5 -1.61786,0.2116066 -2.35352,0.6347656 -0.73569,0.4231943 -1.44858,1.1035322 -2.13867,2.0410157 -0.69012,0.9375144 -1.2435,2.0768364 -1.66015,3.4179684 -0.41668,1.341157 -0.62502,2.571624 -0.625,3.691407 z"
         id="path4510"
         inkscape:connector-curvature="0"
         style="fill:#ffffff" />
    </g>
  </g>
</svg>
